<?xml version="1.0" standalone="no"?><!DOCTYPE svg PUBLIC "-//W3C//DTD SVG 1.1//EN" "http://www.w3.org/Graphics/SVG/1.1/DTD/svg11.dtd"><svg t="1774098407596" class="icon" viewBox="0 0 1024 1024" version="1.1" xmlns="http://www.w3.org/2000/svg" p-id="11931" data-darkreader-inline-fill="" xmlns:xlink="http://www.w3.org/1999/xlink" width="32" height="32"><path d="M1001.187556 900.209778l-97.564445 96.369778c-9.500444 9.329778-246.840889 65.763556-542.435555-173.852445l48.583111-47.900444c239.559111 177.777778 442.254222 168.391111 449.934222 161.28 0 0 70.030222-47.786667 78.848-95.232l-192.056889-126.065778-85.276444 84.024889c-54.158222-0.398222-126.293333-39.822222-190.179556-84.366222l37.546667-36.977778c39.196444 24.917333 85.162667 41.642667 145.578666 42.097778l57.742223-56.945778c26.908444-26.624 64.227556-22.357333 96.938666-0.625778l192.967111 142.449778c32.369778 21.959111 26.339556 69.12-0.625777 95.744zM86.300444 1014.158222a33.792 33.792 0 0 1-47.274666 0 32.597333 32.597333 0 0 1 0-46.535111L759.352889 257.934222a33.735111 33.735111 0 0 1 47.217778 0 32.597333 32.597333 0 0 1 0 46.535111L86.300444 1014.158222z m245.304889-414.264889c-48.128-54.328889-109.397333-186.424889-118.442666-263.168l64-83.968c6.769778-30.72-106.666667-147.057778-106.666667-147.057777-21.105778-20.878222-106.666667 62.976-106.666667 62.976 10.524444 83.911111-29.809778 243.712 210.545778 487.651555l-43.918222 43.235556C-60.643556 384.398222 2.616889 126.293333 12.572444 116.451556L110.136889 20.195556A69.176889 69.176889 0 0 1 207.075556 19.512889l144.213333 190.577778c22.016 32.312889 26.339556 69.176889-0.625778 95.800889l-59.733333 58.936888c9.671111 86.129778 40.448 141.994667 84.48 191.943112l-43.804445 43.121777z" fill="#ffffff" p-id="11932" data-darkreader-inline-fill="" style="--darkreader-inline-fill: var(--darkreader-background-ffffff, #181a1b);"></path></svg>