<?xml version="1.0" standalone="no"?><!DOCTYPE svg PUBLIC "-//W3C//DTD SVG 1.1//EN" "http://www.w3.org/Graphics/SVG/1.1/DTD/svg11.dtd"><svg t="1774099621177" class="icon" viewBox="0 0 1024 1024" version="1.1" xmlns="http://www.w3.org/2000/svg" p-id="12992" data-darkreader-inline-fill="" xmlns:xlink="http://www.w3.org/1999/xlink" width="32" height="32"><path d="M502.939 437.106c-107.347 0-194.673-87.326-194.673-194.663S395.592 47.78 502.939 47.78s194.663 87.326 194.663 194.663-87.316 194.663-194.663 194.663z m0-308.611c-62.842 0-113.958 51.117-113.958 113.948s51.117 113.948 113.958 113.948c62.832 0 113.948-51.117 113.948-113.948s-51.116-113.948-113.948-113.948z" fill="#2563eb" p-id="12993" data-darkreader-inline-fill="" style="--darkreader-inline-fill: var(--darkreader-background-2563eb, #1043b2);"></path><path d="M695.218 957.002h-72.005c-42.111 0-76.36-34.249-76.36-76.36v-72.005c0-20.1 8.158-39.786 22.366-53.994L749.25 574.612c29.756-29.736 78.212-29.795 107.968-0.02l0.02 0.02 72.005 72.005c14.425 14.425 22.366 33.598 22.366 53.994 0 20.415-7.941 39.589-22.386 54.013L749.211 934.636c-14.365 14.405-33.559 22.366-53.993 22.366z m-67.65-80.714h65.857l175.677-175.677-65.857-65.857-175.677 175.677v65.857zM800.19 631.7h0.197-0.197z" fill="#2563eb" p-id="12994" data-darkreader-inline-fill="" style="--darkreader-inline-fill: var(--darkreader-background-2563eb, #1043b2);"></path><path d="M102.923 915.463c-22.287 0-40.357-18.07-40.357-40.357 0-233.651 190.091-423.752 423.752-423.752 66.625 0 130.432 15.035 189.608 44.693 19.922 9.991 27.982 34.239 17.991 54.171-9.971 19.883-34.17 28.022-54.171 17.991-47.846-23.982-99.474-36.14-153.429-36.14-189.155 0-343.037 153.882-343.037 343.037 0 22.287-18.07 40.357-40.357 40.357z" fill="#2563eb" p-id="12995" data-darkreader-inline-fill="" style="--darkreader-inline-fill: var(--darkreader-background-2563eb, #1043b2);"></path></svg>