<?xml version="1.0" standalone="no"?><!DOCTYPE svg PUBLIC "-//W3C//DTD SVG 1.1//EN" "http://www.w3.org/Graphics/SVG/1.1/DTD/svg11.dtd"><svg t="1764947760427" class="icon" viewBox="0 0 1024 1024" version="1.1" xmlns="http://www.w3.org/2000/svg" p-id="5151" data-darkreader-inline-fill="" xmlns:xlink="http://www.w3.org/1999/xlink" width="200" height="200"><path d="M688.096 381.664c-2.784 5.184-5.952 16.448-13.12 23.744a39146.656 39146.656 0 0 1-261.728 264c-18.624 18.656-45.088 17.408-62.624-0.352-17.664-17.856-17.152-42.4 2.464-62.176 86.08-86.496 172.352-172.8 258.592-258.976 13.984-14.016 30.4-19.872 49.504-11.584 16.992 7.424 25.632 21.024 26.912 45.344M110.592 707.712c0.352-57.152 20.192-106.56 60.16-147.296 44.064-45.056 88.864-89.44 133.6-133.856 21.248-21.12 47.36-22.72 65.312-4.576 18.72 18.88 16.896 42.752-5.28 65.088-42.56 42.816-85.76 85.12-127.968 128.416-52.128 53.44-54.336 125.536-6.304 173.984 45.984 46.368 121.952 46.56 169.984-0.352 43.68-42.72 86.144-86.624 129.696-129.376 26.144-25.632 65.92-16.512 72.8 18.016 2.496 12.448-2.496 31.136-11.04 40.192-47.36 50.016-94.592 100.48-146.144 145.824-63.136 55.584-137.12 64.8-214.208 31.136-74.56-32.544-120.32-105.92-120.608-187.2M718.496 109.504c74.464 4.352 141.6 41.248 176.32 123.264 35.296 83.264 19.616 160.736-41.28 226.88-43.136 46.816-89.472 90.688-134.72 135.456-19.616 19.488-51.136 20.064-68.16 2.144-17.248-18.176-15.328-43.072 5.344-64 44.416-44.672 89.472-88.8 133.44-133.888 66.24-67.968 36.8-176.096-54.688-200.48-38.048-10.112-74.56-3.136-103.52 23.904-46.592 43.456-90.4 89.76-136.768 133.216-9.824 9.248-26.112 17.216-38.848 16.384-34.112-2.048-51.36-43.52-27.744-68.16 50.72-52.992 102.496-105.184 156.928-154.24 33.184-29.984 76.384-40.224 133.696-40.48" fill="#000000" p-id="5152" data-darkreader-inline-fill="" style="--darkreader-inline-fill: var(--darkreader-background-000000, #181a1b);"></path></svg>