<?xml version="1.0" standalone="no"?><!DOCTYPE svg PUBLIC "-//W3C//DTD SVG 1.1//EN" "http://www.w3.org/Graphics/SVG/1.1/DTD/svg11.dtd"><svg t="1764948006908" class="icon" viewBox="0 0 1024 1024" version="1.1" xmlns="http://www.w3.org/2000/svg" p-id="6261" data-darkreader-inline-fill="" xmlns:xlink="http://www.w3.org/1999/xlink" width="200" height="200"><path d="M521.6 611.2c3.2 6.4 6.4 12.8 6.4 16 0 3.2 0 12.8-6.4 19.2l-124.8 124.8c-6.4 6.4-16 6.4-19.2 6.4-3.2 0-12.8 0-19.2-6.4L288 700.8c-6.4-6.4-6.4-16-6.4-19.2 0-3.2 0-12.8 6.4-19.2l124.8-124.8c6.4-6.4 16-6.4 19.2-6.4 3.2 0 6.4 0 12.8 3.2l38.4-38.4c-32-25.6-76.8-25.6-108.8 6.4l-124.8 124.8c-32 32-32 83.2 0 112l70.4 70.4c32 32 83.2 32 112 0l124.8-124.8c28.8-28.8 32-80 3.2-108.8l-38.4 35.2z m-121.6 41.6c12.8 12.8 32 12.8 41.6 0l240-240c12.8-12.8 12.8-32 0-41.6-12.8-12.8-32-12.8-41.6 0L400 608c-9.6 12.8-9.6 32 0 44.8zM841.6 288L768 214.4c-32-32-83.2-32-112 0l-124.8 124.8c-28.8 28.8-32 76.8-6.4 108.8l38.4-38.4c-3.2-6.4-3.2-9.6-3.2-12.8 0-3.2 0-12.8 6.4-19.2l124.8-124.8c6.4-6.4 16-6.4 19.2-6.4 3.2 0 12.8 0 19.2 6.4l70.4 70.4c6.4 6.4 6.4 16 6.4 19.2 0 3.2 0 12.8-6.4 19.2l-124.8 124.8c-6.4 6.4-16 6.4-19.2 6.4-3.2 0-9.6 0-16-6.4l-38.4 38.4c32 28.8 80 25.6 108.8-3.2l124.8-124.8c35.2-28.8 35.2-80 6.4-108.8zM384 288l32-256H256l32 256h96z m-64 64c-19.2 0-32 12.8-32 32v32c0 19.2 12.8 32 32 32h32c19.2 0 32-12.8 32-32v-32c0-19.2-12.8-32-32-32h-32z" fill="#000000" p-id="6262" data-darkreader-inline-fill="" style="--darkreader-inline-fill: var(--darkreader-background-000000, #181a1b);"></path></svg>