<?xml version="1.0" standalone="no"?><!DOCTYPE svg PUBLIC "-//W3C//DTD SVG 1.1//EN" "http://www.w3.org/Graphics/SVG/1.1/DTD/svg11.dtd"><svg t="1766406647978" class="icon" viewBox="0 0 1024 1024" version="1.1" xmlns="http://www.w3.org/2000/svg" p-id="7969" data-darkreader-inline-fill="" xmlns:xlink="http://www.w3.org/1999/xlink" width="200" height="200"><path d="M934.528 554.325333c-14.506667 54.229333-51.925333 69.674667-113.493333 60.970667-72.362667-10.24-133.589333-29.653333-129.109334-92.16 0 0 5.717333-67.285333-170.325333-72.405333-205.44-5.290667-196.693333 74.410667-196.693333 74.410666-0.085333 73.386667-50.773333 77.44-122.965334 88.192-72.234667 10.752-116.394667-7.168-125.269333-87.381333-17.152-154.624 265.386667-194.944 389.333333-196.48 0 0 189.013333-2.858667 279.594667 23.765333l48.768 13.866667c67.968 21.973333 128.981333 61.952 143.146667 118.826667 0 0 8.362667 25.898667-2.986667 68.394666z" fill="#d81e06" p-id="7970" data-darkreader-inline-fill="" style="--darkreader-inline-fill: var(--darkreader-background-d81e06, #b41905);"></path></svg>