<?xml version="1.0" standalone="no"?><!DOCTYPE svg PUBLIC "-//W3C//DTD SVG 1.1//EN" "http://www.w3.org/Graphics/SVG/1.1/DTD/svg11.dtd"><svg t="1757585765252" class="icon" viewBox="0 0 1024 1024" version="1.1" xmlns="http://www.w3.org/2000/svg" p-id="7358" data-darkreader-inline-fill="" xmlns:xlink="http://www.w3.org/1999/xlink" width="200" height="200"><path d="M848.685247 68.890425H175.423128c-61.557045 0-112.276582 55.235165-112.276582 116.900586v669.25224c0 61.66542 49.997037 111.554082 111.554082 111.554082H843.519368c61.557045 0 117.334086-50.611162 117.334086-112.168207V181.167008c0-61.66542-50.611162-112.276582-112.168207-112.276583z m56.138291 785.538701c0 30.778523-30.525647 56.391166-61.30417 56.391166H174.700628c-30.778523 0-55.777041-24.998518-55.777041-55.777041V185.791011c0-30.850773 25.721019-60.762295 56.499541-60.762294h673.262119c30.778523 0 56.138291 25.251393 56.138291 56.138291v673.262118z" fill="#e6e6e6" p-id="7359" data-darkreader-inline-fill="" style="--darkreader-inline-fill: var(--darkreader-background-e6e6e6, #222527);"></path><path d="M736.517039 686.122628H287.591336c-15.497636 0-28.033021-12.535384-28.033021-28.105271 0-15.497636 12.535384-28.033021 28.033021-28.033021h448.889578c15.497636 0 28.033021 12.535384 28.033021 28.033021 0 15.533761-12.535384 28.105271-27.996896 28.105271zM736.517039 517.780004H287.591336c-15.497636 0-28.033021-12.535384-28.033021-28.10527a28.033021 28.033021 0 0 1 28.033021-28.033021h448.889578c15.497636 0 28.033021 12.535384 28.033021 28.033021 0 15.569886-12.535384 28.105271-27.996896 28.10527zM736.517039 349.473506H287.591336c-15.497636 0-28.033021-12.535384-28.033021-28.105271a28.033021 28.033021 0 0 1 28.033021-28.03302h448.889578c15.497636 0 28.033021 12.535384 28.033021 28.03302 0 15.569886-12.535384 28.105271-27.996896 28.105271z" fill="#e6e6e6" p-id="7360" data-darkreader-inline-fill="" style="--darkreader-inline-fill: var(--darkreader-background-e6e6e6, #222527);"></path></svg>