<?xml version="1.0" standalone="no"?><!DOCTYPE svg PUBLIC "-//W3C//DTD SVG 1.1//EN" "http://www.w3.org/Graphics/SVG/1.1/DTD/svg11.dtd"><svg t="1775890994206" class="icon" viewBox="0 0 1024 1024" version="1.1" xmlns="http://www.w3.org/2000/svg" p-id="5656" data-darkreader-inline-fill="" width="32" height="32" xmlns:xlink="http://www.w3.org/1999/xlink"><path d="M379.904 501.76c-32.768 0-59.392-26.624-59.392-59.392s26.624-59.392 59.392-59.392S439.296 409.6 439.296 442.368C438.784 475.136 412.16 501.76 379.904 501.76z m260.096 0c-32.768 0-59.392-26.624-59.392-59.392s26.624-59.392 59.392-59.392c32.768 0 59.392 26.624 59.392 59.392-1.024 32.768-27.136 59.392-59.392 59.392z m337.408 46.08c28.672 0 46.592-22.528 46.592-51.712V363.52c0-28.672-17.92-51.712-46.592-51.712s-46.592 23.04-46.592 51.712v132.608c0 28.672 17.92 51.712 46.592 51.712zM46.592 311.808C17.92 311.808 0 334.848 0 363.52v132.608c0 28.672 17.92 51.712 46.592 51.712s46.592-22.528 46.592-51.712V363.52c0-28.672-17.92-51.712-46.592-51.712z" p-id="5657" fill="#2563eb" data-darkreader-inline-fill="" style="--darkreader-inline-fill: var(--darkreader-text-2563eb, #388fed);"></path><path d="M710.144 83.968H310.272c-92.16 0-167.424 75.264-167.424 167.424v382.464c0 92.16 75.264 167.424 167.424 167.424h169.984c30.208 0 49.152-28.672 49.152-55.296 0-24.064-3.584-50.688-45.568-58.88l-1.536-0.512h-184.32c-23.04 0-41.472-18.432-41.472-41.472V240.128c0-23.04 18.432-41.472 41.472-41.472H721.92c23.04 0 41.472 18.432 41.472 41.472v249.856c0 21.504 18.432 53.248 57.344 53.248 36.864 0 56.832-32.256 56.832-55.296V251.392c0-92.16-75.264-167.424-167.424-167.424z" p-id="5658" fill="#2563eb" data-darkreader-inline-fill="" style="--darkreader-inline-fill: var(--darkreader-text-2563eb, #388fed);"></path><path d="M773.632 600.576c-2.048-5.632-7.68-9.216-13.824-9.216h-62.464c-6.144 0-11.264 3.584-13.824 9.216l-141.824 357.376c-2.048 4.608-1.024 9.728 1.536 13.824 2.56 4.096 7.168 6.656 12.288 6.656H614.4c6.144 0 11.776-3.584 13.824-9.728l33.28-88.064h135.68l33.28 88.064c2.048 5.632 7.68 9.728 13.824 9.728h59.392c5.12 0 9.216-2.56 12.288-6.656 2.56-4.096 3.072-9.216 1.536-13.824l-143.872-357.376z m-45.056 95.232c5.632 14.336 19.968 51.712 43.52 112.64H686.08l27.136-72.192c7.68-19.968 12.8-33.792 15.36-40.448zM998.912 592.384h-54.272c-8.192 0-14.848 6.656-14.848 14.848v356.352c0 8.192 6.656 14.848 14.848 14.848h54.272c8.192 0 14.848-6.656 14.848-14.848v-356.352c0-8.192-6.656-14.848-14.848-14.848z" p-id="5659" fill="#2563eb" data-darkreader-inline-fill="" style="--darkreader-inline-fill: var(--darkreader-text-2563eb, #388fed);"></path></svg>